<svg t="1727074994494" class="icon" viewBox="0 0 1242 1024" version="1.1" xmlns="http://www.w3.org/2000/svg" p-id="4502" width="200" height="200"><path d="M620.94559 1024c-308.997447 0-465.702128-68.493617-465.702127-203.574468 0-96.408511 161.443404-159.591489 322.423829-180.970213v-20.017021c-96.680851-66.587234-143.673191-182.740426-143.673191-354.178724 0-166.12766 105.477447-265.259574 282.212766-265.259574h9.531915c176.803404 0 282.294468 99.131915 282.294468 265.259574 0 64.408511 0 255.72766-142.58383 354.451064l-0.476596 19.880851c160.680851 21.514894 321.729362 84.561702 321.729362 180.834043 0 135.080851-156.704681 203.574468-465.702128 203.574468zM1210.058782 731.370213a31.509787 31.509787 0 0 1-31.659575-31.455319c0-24.102128-90.430638-82.791489-195.213617-93.821277a31.400851 31.400851 0 0 1-28.405106-31.319149v-65.634042a31.319149 31.319149 0 0 1 14.747234-26.553192c81.960851-51.880851 90.811915-167.353191 90.811915-214.604255 0-108.93617-73.96766-131.812766-136.061277-131.812766a31.509787 31.509787 0 0 1-31.741276-31.455319 29.412766 29.412766 0 0 1 8.905531-21.923405 33.634043 33.634043 0 0 1 22.835745-9.668085c123.01617 0 199.475745 74.621277 199.475745 194.859575 0 54.876596-10.634894 186.008511-105.559149 257.634042v21.923405c101.446809 18.382979 223.686809 78.842553 223.686808 152.374468a29.548936 29.548936 0 0 1-8.932766 21.923404 32.830638 32.830638 0 0 1-22.80851 9.531915h-0.081702z m-1178.226383 0a31.509787 31.509787 0 0 0 31.659574-31.455319c0-24.102128 90.430638-82.791489 195.213617-93.821277a31.400851 31.400851 0 0 0 28.405107-31.319149v-65.634042a31.509787 31.509787 0 0 0-14.747234-26.553192c-81.960851-51.880851-90.811915-167.353191-90.811915-214.604255 0-108.93617 73.96766-131.812766 136.061276-131.812766a31.509787 31.509787 0 0 0 31.741277-31.455319 29.957447 29.957447 0 0 0-8.932766-22.059575 34.260426 34.260426 0 0 0-22.890213-9.531915c-123.01617 0-199.475745 74.621277-199.475745 194.859575 0 54.876596 10.634894 186.008511 105.572766 257.634042v21.923405C122.24942 565.923404 0.00942 626.382979 0.00942 699.914894A29.548936 29.548936 0 0 0 8.942186 721.838298a32.830638 32.830638 0 0 0 22.808511 9.531915h0.081702z m0 0" fill="#AD3A36" p-id="4503"></path></svg>